# xmcd
#
# Track frame offsets:
#       150
#       19915
#       33630
#       48433
#       64884
#       79693
#       94420
#       107770
#       121740
#       139244
#       153995
#       169115
#
# Disc length: 2468 seconds
#
# Revision: 1
# Processed by: cddbd v1.5.1PL0 Copyright (c) Steve Scherf et al.
# Submitted via: MusiCat 1.1
#
DISCID=9f09a20c
DTITLE=Quero - Lembranças
DYEAR=1900
DGENRE=
TTITLE0=Dois pra lá, dois pra cá
TTITLE1=Nunca
TTITLE2=Voa Liberdade
TTITLE3=Lembranças
TTITLE4=Hoje
TTITLE5=Número 1
TTITLE6=Minha solidão
TTITLE7=Balada das mãos
TTITLE8=Eu nunca mais vou te esquecer
TTITLE9=Somos iguais
TTITLE10=Viagem
TTITLE11=Marina
EXTD=\n\n
EXTT0=
EXTT1=
EXTT2=
EXTT3=
EXTT4=
EXTT5=
EXTT6=
EXTT7=
EXTT8=
EXTT9=
EXTT10=
EXTT11=
PLAYORDER=
